<svg width="24" height="25" viewBox="0 0 24 25" fill="none" xmlns="http://www.w3.org/2000/svg">
<path fill-rule="evenodd" clip-rule="evenodd" d="M11.8444 10.5889C10.3264 10.5889 9.09131 11.8219 9.09131 13.3389C9.09131 14.8559 10.3264 16.0889 11.8444 16.0889C13.3624 16.0889 14.5964 14.8559 14.5964 13.3389C14.5964 11.8219 13.3624 10.5889 11.8444 10.5889Z" fill="white"/>
<path fill-rule="evenodd" clip-rule="evenodd" d="M16.864 9.41779C16.294 9.41779 15.829 8.95579 15.829 8.38879C15.829 7.81979 16.294 7.35779 16.864 7.35779C17.434 7.35779 17.898 7.81979 17.898 8.38879C17.898 8.95579 17.434 9.41779 16.864 9.41779ZM11.844 17.5888C9.5 17.5888 7.592 15.6828 7.592 13.3388C7.592 10.9948 9.5 9.08879 11.844 9.08879C14.189 9.08879 16.096 10.9948 16.096 13.3388C16.096 15.6828 14.189 17.5888 11.844 17.5888ZM16.217 3.50879H7.782C4.623 3.50879 2.5 5.73079 2.5 9.03879V16.9788C2.5 20.2858 4.623 22.5088 7.782 22.5088H16.216C19.376 22.5088 21.5 20.2858 21.5 16.9788V9.03879C21.5 5.73079 19.377 3.50879 16.217 3.50879Z" fill="white"/>
</svg>
