<svg width="24" height="25" viewBox="0 0 24 25" fill="none" xmlns="http://www.w3.org/2000/svg">
<path fill-rule="evenodd" clip-rule="evenodd" d="M9.622 20.4273C9.61093 20.5195 9.72064 20.5751 9.78907 20.5123C10.1547 20.1767 10.9095 19.4841 11.0658 19.3419C12.1778 18.3289 12.1768 18.3269 10.9208 17.4709C10.0348 16.8659 10.0228 16.8639 9.91386 17.9089C9.84609 18.5521 9.68975 19.8631 9.622 20.4273ZM15.3523 9.88511C15.4406 9.80238 15.3361 9.66231 15.2336 9.72664C13.4623 10.8381 9.47141 13.3426 7.85986 14.3549C7.46286 14.6049 7.33786 14.9519 7.50486 15.4069C7.83786 16.3099 8.15486 17.2189 8.48986 18.1219C8.51311 18.1853 8.60838 18.3909 8.69307 18.5707C8.73531 18.6604 8.86747 18.6398 8.88079 18.5415C8.91215 18.3104 8.9502 18.0265 8.96086 17.9329C9.02586 17.3619 9.09886 16.7919 9.12886 16.2189C9.15286 15.7549 9.36386 15.4329 9.69886 15.1299C11.0651 13.8943 13.9753 11.1746 15.3523 9.88511ZM22.9248 5.78586C22.6118 7.32386 22.3138 8.86486 21.9608 10.3939C21.1778 13.7879 20.3568 17.1719 19.5508 20.5609C19.5298 20.6509 19.5028 20.7389 19.4778 20.8289C19.1038 22.1689 17.9988 22.5479 16.8668 21.7209C15.6998 20.8669 14.5278 20.0189 13.3748 19.1459C13.0798 18.9229 12.8868 18.9309 12.6228 19.1859C11.9278 19.8549 11.2188 20.5099 10.4958 21.1469C9.55586 21.9739 8.83186 21.7929 8.38986 20.6089C7.74886 18.8899 7.11786 17.1669 6.52486 15.4319C6.36786 14.9699 6.11386 14.7509 5.66586 14.6159C4.47786 14.2579 3.30486 13.8479 2.12086 13.4779C1.53686 13.2949 1.01086 13.0369 0.98386 12.3539C0.95886 11.7219 1.43086 11.4109 1.95686 11.2059C5.25386 9.92186 8.54386 8.61886 11.8548 7.36886C14.8018 6.25686 17.7708 5.20386 20.7318 4.12786C20.9748 4.03986 21.2218 3.95086 21.4748 3.90086C22.2728 3.74186 22.7178 4.05886 22.9748 4.71286C23.0778 4.97386 22.9668 5.58286 22.9248 5.78586Z" fill="white"/>
</svg>
