<svg width="321" height="4" viewBox="0 0 321 4" fill="none" xmlns="http://www.w3.org/2000/svg">
<path d="M3.01094 0.136117C4.80052 0.0157019 7.15945 -0.0134048 8.95062 0.00542109C9.51555 0.0108897 9.23027 0.12616 9.61628 0.135001C10.3772 0.152113 11.0725 0.0789281 11.8292 0.10597C12.0812 0.11544 11.7727 0.2924 12.0374 0.298495C13.4453 0.332037 14.8206 0.252826 16.2452 0.254006C23.3477 0.259005 30.3504 0.227807 37.5364 0.236366C39.859 0.239543 42.8176 0.369003 45.2162 0.287019C45.5026 0.277239 45.3309 0.130945 45.3853 0.118445C46.2435 -0.0729929 45.9598 0.226388 46.5274 0.262445C48.7083 0.405262 51.1702 0.406499 53.316 0.340691C54.2348 0.312268 53.3301 0.0231791 54.225 0.183908C54.2871 0.194766 54.0626 0.352184 54.306 0.367915C54.8564 0.403257 55.9203 0.371369 56.3621 0.38227C57.2053 0.404072 57.3782 0.401946 58.1457 0.401337C59.2101 0.401845 60.5125 0.476093 61.6999 0.437845C61.9431 0.42924 61.6204 0.26953 62.0089 0.241325C62.3964 0.213146 63.438 0.224543 63.7944 0.261695C64.1496 0.298848 63.9988 0.425262 64.0617 0.454048C64.575 0.697018 65.8251 0.356981 65.9704 0.348425C68.7757 0.201653 71.2434 0.392032 73.9298 0.390543C75.8571 0.389124 77.8105 0.333685 79.7043 0.334386C79.8293 0.334432 79.9536 0.33475 80.0771 0.335376C82.3188 0.347468 84.3809 0.436272 86.5532 0.423952C86.7879 0.422846 86.513 0.233845 86.7998 0.232116C89.8947 0.214017 92.8814 0.239679 95.9775 0.373427C96.2788 0.38699 95.8901 0.551829 96.1912 0.575286C98.0191 0.715133 101.048 1.04933 102.134 0.33093C103.385 0.36223 104.924 0.395421 106.07 0.543987C106.809 0.639616 106.089 0.818051 107 0.743616C107.206 0.727043 106.939 0.568252 107.248 0.555353C108.509 0.501085 109.897 0.556567 111.168 0.478828C111.427 0.462643 111.357 0.320825 111.43 0.295552C112.047 0.0909396 113.079 0.435571 113.305 0.461104C114.98 0.651436 116.208 0.582715 117.795 0.592644C118.164 0.595032 117.729 0.403338 118.083 0.398806C119.95 0.377953 121.786 0.400851 123.589 0.49189C123.988 0.512593 123.62 0.673257 123.811 0.691441C124.653 0.769658 124.842 0.464347 125.654 0.533524C125.826 0.547717 125.728 0.686052 125.76 0.701404C126.253 0.94239 126.665 0.605139 126.789 0.598134C128.348 0.501888 129.351 0.859517 130.88 0.815503C131.063 0.809883 130.651 0.632741 131.165 0.627675C134.588 0.592876 138.193 0.656186 141.554 0.811191C142.076 0.835052 141.703 0.965265 141.736 0.98166C142.27 1.23793 142.619 0.899211 142.79 0.887147C144.137 0.800823 145.404 1.09181 146.332 0.690727C152.015 0.856912 157.732 0.656466 163.394 1.04747C163.465 1.05203 163.336 1.21896 163.479 1.22734C165.205 1.32996 164.875 1.0679 166.024 0.755106C166.313 0.676566 167.193 1.06554 167.271 1.09412C167.555 1.19942 167.259 1.44723 167.354 1.46783C168.141 1.62975 168.024 0.804703 169.08 0.809772C169.112 0.811313 168.974 0.962364 169.062 0.977897C169.335 1.02665 169.607 0.967726 169.875 1.02132C170.488 1.14531 170.705 1.54702 171.647 1.31868C171.767 1.28904 171.586 0.82044 172.53 0.847369C172.906 0.858492 174.577 0.859085 175.047 0.891835C175.516 0.924535 175.193 1.07357 175.227 1.08027C176.49 1.2861 176.016 1.36624 176.64 1.66452C177.263 1.96169 177.094 1.25977 177.349 1.18286C177.605 1.10617 178.522 1.27539 178.747 1.33373C178.973 1.3921 178.691 1.48638 178.891 1.51979C180.222 1.7382 179.478 1.17491 179.917 1.06596C180.955 0.807966 181.762 1.33213 182.715 1.38814C182.973 1.40327 182.763 1.28374 182.993 1.27389C183.907 1.23647 184.448 1.40158 185.473 1.25833C185.641 1.23499 186.472 0.926884 187.009 1.15917C187.085 1.19265 186.868 1.32104 187.253 1.35213C187.828 1.39879 188.868 1.43273 189.49 1.3928C189.949 1.36325 189.424 1.14692 190.001 1.21638C190.258 1.24738 189.781 1.36968 190.264 1.41751C190.742 1.46531 191.982 1.46659 192.438 1.46477C192.899 1.46289 192.647 1.29958 192.685 1.28888C192.911 1.22762 193.799 1.15441 193.877 1.15504C197.844 1.15707 201.516 1.45051 205.384 1.38201C205.688 1.37688 205.486 1.20498 205.533 1.20243C206.576 1.13679 205.751 1.58613 206.479 1.74222C206.376 1.39511 206.806 1.46029 207.542 1.42646C207.897 1.40989 207.705 1.27462 207.737 1.26107C208.266 1.06027 208.622 1.32553 208.716 1.37991C209.06 1.57995 209.436 1.34805 209.671 1.48179C209.905 1.61454 209.363 1.80626 210.063 1.80776C210.26 1.68484 209.742 1.35773 210.274 1.30823C212.273 1.12089 216.065 1.39705 217.661 1.43274C219.27 1.46845 219.792 1.44861 220.733 1.49891C222.433 1.58988 221.811 1.34575 222.87 1.24184C223.933 1.13798 223.413 1.7267 223.565 1.8548C223.714 1.98283 223.879 1.8529 224.065 1.92389C224.251 1.99486 223.848 2.079 224.285 2.1078C224.722 2.13657 225.907 1.91731 226.063 1.78521C226.39 1.50534 225.856 1.20644 227.005 1.31711C227.071 1.32367 226.856 1.478 227.109 1.49522C229.119 1.62683 231.224 1.6467 233.24 1.76461C233.516 1.78106 233.268 1.95269 233.428 1.96422C235.1 2.08487 234.504 1.78947 235.424 1.47071C235.215 1.90095 235.721 2.16793 236.994 2.17808C237.76 2.18433 237.63 1.99511 238.126 1.86525C238.275 1.82611 238.817 1.95874 238.916 1.87071C239.242 1.58296 238.732 1.2556 240.049 1.39262C240.107 1.3991 239.921 1.55657 240.121 1.56737C241.414 1.63799 241.566 1.33588 242.954 1.30752C244.041 1.28526 245.979 1.48171 247.223 1.51928C247.193 2.00421 248.369 1.90024 248.849 1.56867C249.659 1.58727 250.526 1.57361 251.303 1.62456C251.57 1.64194 251.393 1.78132 251.427 1.7967C251.942 2.03789 252.294 1.71462 252.468 1.70292C254.351 1.59036 255.887 1.84634 257.693 1.61634C257.757 1.60805 257.863 1.27172 258.344 1.5207C258.375 1.53785 257.78 1.68753 258.626 1.70456C259.47 1.72159 261.061 1.91197 262.236 1.76303C262.521 1.72718 263.242 1.45805 263.818 1.67532C263.895 1.70482 263.81 1.80094 263.921 1.8554C264.279 2.02896 264.478 1.68958 264.898 1.98152C265.319 2.27344 266.199 2.49554 267.386 2.30321C267.423 2.29764 267.705 2.02942 268.076 2.03598C268.67 2.04668 269.513 2.10811 270.133 2.11018C270.43 2.11107 270.241 1.94227 270.293 1.93953C272.292 1.85793 273.716 2.01616 275.864 2.09431C276.255 2.10896 277.383 1.88735 278.141 2.07277C278.974 2.27577 278.111 3.09337 280.031 2.90921C280.805 2.8356 281.792 1.79766 283.182 2.34723C285.887 2.23 288.367 2.52229 291.079 2.34781C291.2 2.34009 291.587 2.05111 291.874 2.05686C292.299 2.06597 292.532 2.20361 292.835 2.21448C294.108 2.26344 295.266 2.15415 296.49 2.17993C296.955 2.18942 296.792 2.32922 297.346 2.34055C297.9 2.35175 298.271 2.16864 299.022 2.26289C299.589 2.3347 300.154 2.71726 300.908 2.76615C300.939 2.39248 301.457 2.40342 302.378 2.31049C302.554 2.29245 302.366 2.16115 302.449 2.1459C302.789 2.08096 303.103 2.19077 303.426 2.11979C303.505 2.10275 303.509 1.9751 303.574 1.95396C304.12 1.76935 305.018 2.06217 305.172 2.11314C305.763 2.30674 306.04 2.14243 306.494 2.22005C306.947 2.29767 306.269 2.38689 306.798 2.43558C307.896 2.53631 309.308 2.52454 310.424 2.53741C310.87 2.54175 310.567 2.36943 310.631 2.36609C311.553 2.32864 312.48 2.51574 312.992 2.17947C313.624 3.0612 313.547 2.09781 314.861 2.28177C314.965 2.29663 315.094 2.71253 314.696 2.77097C314.298 2.82936 313.695 2.69583 313.143 2.78736C313.012 2.80883 312.262 3.1931 312.16 3.21602C311.359 3.39514 311.25 2.77416 311.208 2.73983C310.73 2.36916 309.811 2.78244 309.57 2.80989C308.466 2.93564 307.529 2.84254 306.607 2.93146C306.004 2.98889 305.942 3.39482 305.469 3.37942C303.896 3.32847 303.352 2.75825 301.866 3.24041C301.547 3.34324 301.86 3.78929 300.722 3.43296C300.65 3.4105 299.805 3.08576 299.315 3.28476C299.253 3.30985 299.254 3.43928 299.173 3.44965C298.63 3.51658 298.269 3.41121 297.677 3.4569C297.086 3.50258 296.375 3.57176 295.701 3.52365C295.295 3.49487 294.776 3.25048 294.581 3.19024C294.033 3.01675 293.445 3.29191 293.104 3.08384C292.761 2.87473 293.436 2.56461 292.534 2.42525C292.499 2.76128 292.42 3.10592 292.364 3.44373C290.387 3.41956 288.446 3.29873 286.468 3.30128C286.223 3.30193 286.473 3.48425 286.21 3.48961C285.102 3.51143 284.133 3.37654 282.978 3.42069C282.085 3.45555 281.106 3.64087 280.174 3.6833C279.607 3.29501 278.224 3.41706 277.221 3.37569C276.87 3.36136 276.894 3.25875 276.645 3.22368C275.704 3.09386 276.143 3.4366 275.884 3.4885C274.77 3.70998 274.679 2.9398 273.368 2.95071C273.298 2.95103 272.447 3.35601 272.33 3.38083C271.587 3.54283 272.208 3.23729 271.744 3.20411C270.896 3.14349 270.308 3.04189 269.313 3.15592C269.024 3.18972 268.328 3.44113 267.767 3.2399C267.693 3.21355 267.735 3.07821 267.675 3.0699C266.601 2.93092 266.564 3.35676 265.946 3.49726C265.326 3.63771 264.374 3.33774 264.18 3.25179C263.674 3.02938 264.57 3.16046 264.598 3.13911C264.923 2.88501 264.226 2.92482 263.695 2.89992C263.62 2.4817 262.877 2.50222 263.144 2.87579C263.174 2.9166 263.588 2.88018 263.695 2.89992C263.226 3.30693 262.409 3.35441 261.511 2.96588C261.09 2.78378 261.49 2.57691 260.209 2.64565C259.629 2.67666 259.851 2.96568 259.339 3.04096C258.173 3.21277 256.636 2.93506 255.428 2.96997C254.988 2.98264 255.415 3.1427 255.115 3.15679C254.318 3.19467 253.617 3.07226 252.818 3.12792C252.745 3.13316 252.921 3.29906 252.673 3.29965C250.792 3.30737 249.154 3.19186 247.18 3.17701C246.227 3.16991 244.527 3.25057 243.544 3.22638C241.846 3.18546 239.739 2.93314 238.278 2.98264C237.326 3.01422 237.534 3.18032 237.126 3.29021C236.338 3.50324 234.95 3.10497 234.764 3.04347C234.758 3.04143 235.575 3.00743 235.14 2.92021C234.888 2.74238 234.773 3.04276 234.764 3.04347C234.641 3.00372 233.014 2.95663 232.688 2.98621C232.511 3.00238 232.609 3.15916 232.516 3.16464C230.319 3.29139 228.127 3.31814 225.918 3.23214C225.879 3.22875 225.938 3.05439 225.847 3.04861C224.572 2.96345 223.742 3.17232 222.679 3.293C221.617 3.41364 220.777 3.36626 220.152 3.06269C219.353 3.09581 218.211 2.95658 217.555 2.87232C216.898 2.78807 216.805 3.12763 216.747 3.13401C214.938 3.33876 213.88 3.138 212.005 3.09695C211.112 3.07685 209.346 3.1161 208.385 3.14783C207.626 3.17347 207.157 3.09111 206.452 3.13808C206.356 3.14434 206.452 3.29631 206.423 3.30198C205.633 3.47868 206.014 3.11065 205.852 3.04362C205.264 2.79986 204.9 2.66976 203.893 2.77719C203.661 2.80178 202.983 3.33099 202.561 3.35979C202.012 3.39627 202.22 3.20638 201.646 3.24944C201.597 3.25295 201.607 3.37087 201.253 3.36369C199.624 3.332 197.795 3.25324 196.085 3.25561C195.851 3.25547 196.15 3.44408 195.812 3.44697C194.22 3.46034 192.509 3.44403 190.947 3.34801C190.564 3.3238 190.805 3.19421 190.722 3.15489C190.213 2.91694 189.49 3.25472 189.371 3.26058C186.526 3.40937 184.4 3.08872 181.486 3.2205C181.328 3.22831 180.115 3.58821 179.579 3.27123C179.542 3.25013 179.011 2.92592 178.539 3.14321C178.51 3.1568 178.841 3.32401 178.263 3.30411C177.682 3.28424 176.763 3.38995 175.959 3.20396C175.705 3.14537 175.105 2.82163 174.348 3.0733C174.298 3.09088 173.128 3.66276 172.716 3.26192C172.649 3.19594 172.721 2.77436 171.821 2.98609C171.65 3.02716 171.961 3.12286 171.509 3.17932C170.816 3.26636 169.902 3.1487 169.056 3.33238C168.912 3.36493 168.271 3.64808 167.761 3.42814C167.681 3.3937 167.834 3.2536 167.564 3.23648C166.281 3.15441 164.944 3.24197 163.655 3.13813C163.198 3.10163 163.432 2.87506 162.957 2.81169C162.48 2.74833 161.532 2.685 161.026 2.7866C160.521 2.88824 161.07 3.25386 160.315 3.27923C157.027 3.38937 153.85 3.16137 150.566 3.11507C150.084 3.10819 150.483 3.2399 149.773 3.2391C147.187 3.2368 142.601 3.33816 140.364 3.05263C138.552 2.82381 140.842 2.66538 139.447 2.56944C138.768 2.52362 138.034 2.94248 137.871 2.95507C136.278 3.08328 135.18 2.89181 133.766 2.94337C133.474 2.95408 133.76 3.12627 133.511 3.13349C132.674 3.15973 131.743 3.07965 130.926 3.09036C130.557 3.09555 130.624 3.22644 130.285 3.21501C129.475 3.18919 128.762 3.13149 127.979 3.00604C127.908 2.99461 128.39 2.83398 127.796 2.82564C126.84 2.81263 125.637 2.68728 124.511 2.80781C124.179 2.8441 124.164 3.14257 123.453 2.93378C123.304 2.89018 123.494 2.53239 122.667 2.83911C122.527 2.89006 121.141 3.30282 120.468 3.03116C120.288 2.95964 119.847 2.66474 119.438 2.70941C119.383 2.71658 119.601 2.87769 119.268 2.89217C118.093 2.9404 116.871 2.91914 115.684 2.96543C115.367 2.97811 115.839 3.1456 115.367 3.1592C114.079 3.19689 112.441 3.14942 111.155 3.09354C110.683 3.07263 111.01 2.93618 110.976 2.92111C110.425 2.67612 110.099 3.00355 109.917 3.02215C108.779 3.1334 107.942 2.9767 106.886 3.01453C106.593 3.02456 106.8 3.18173 106.742 3.19553C106.137 3.33025 106.588 3.05031 106.206 3.01824C105.137 2.9275 103.956 2.93692 102.895 2.9542C102.505 2.96078 102.942 3.14347 102.593 3.14728C100.545 3.17333 98.2987 3.15072 96.3052 3.04647C95.9271 3.0265 96.1653 2.88719 96.0866 2.8551C95.5578 2.63058 94.7165 2.93364 94.5337 2.96232C93.6795 3.09321 93.3505 2.96896 92.6048 2.9907C89.0081 3.09903 84.4617 3.0114 81.0259 2.95893C80.5725 2.952 80.1324 2.94441 79.7032 2.9364C75.7846 2.86615 72.64 2.76289 68.79 2.79801C68.5162 2.80034 68.7924 2.98601 68.5566 2.99041C65.5532 3.03871 62.5985 2.9715 59.5282 3.03376C59.2801 3.03853 59.6379 3.21384 59.2403 3.22744C58.4248 3.25657 57.416 3.25013 56.563 3.19677C56.1552 3.17105 56.7012 3.01786 56.2912 2.99507C55.3301 2.9417 54.3596 2.93284 53.3717 2.96523C52.9509 2.97941 53.5862 3.15706 53.0399 3.16145C49.4166 3.19479 45.7661 3.24619 42.0809 3.04048C41.8272 3.02637 41.6011 2.66155 41.0703 2.73604C41.0311 2.83806 41.0342 2.95769 41.0176 3.06654C35.6987 3.16758 30.4077 3.09747 25.0892 3.16476C24.8659 3.16764 25.2625 3.35532 24.8174 3.36214C22.3065 3.40101 19.8433 3.50234 17.2686 3.36902C17.0177 3.35604 17.1311 3.01145 16.3748 3.08128C16.2388 3.09383 15.1194 3.16721 14.8173 3.2494C14.7777 3.26162 14.9893 3.41564 14.6227 3.42981C12.4988 3.50925 10.2717 3.53919 8.15024 3.51297C7.81117 3.50833 8.16573 3.32649 7.92455 3.32172C6.18967 3.28993 4.31393 3.4882 2.65301 3.39744C1.53921 3.33621 1.93903 3.02718 1.34034 2.76111C1.25538 2.72359 0.568457 2.74374 0.52665 2.57713C0.419182 2.15826 0.733557 1.68285 0.579737 1.23789C0.547042 1.14203 -0.367217 1.28212 0.167396 1.02667C0.204702 1.00951 0.867773 0.905893 1.02924 0.820033C1.14157 0.760639 0.928679 0.597782 1.15953 0.518385C1.38997 0.439075 1.65025 0.572434 2.03433 0.47489C2.41798 0.376379 2.24251 0.188374 3.01094 0.136117ZM214.586 2.49556C213.975 2.32871 213.881 2.92637 214.544 2.78707C214.576 2.77963 214.618 2.50376 214.586 2.49556ZM288.461 2.84761C287.664 2.5788 287.116 2.96335 287.678 3.17062C288.239 3.37767 288.703 2.9291 288.461 2.84761ZM296.74 2.70664C295.809 2.49279 295.657 3.34011 296.656 3.17488C296.714 3.16555 296.794 2.71906 296.74 2.70664ZM4.06624 2.57495C4.05863 2.56727 3.56469 2.57804 3.55265 2.58639C3.29709 2.78609 4.28419 2.76443 4.06624 2.57495ZM304.956 2.54831C304.665 2.43175 303.827 2.55896 304.187 2.70391C304.478 2.82051 305.317 2.69332 304.956 2.54831ZM182.74 1.68026C182.73 1.6713 182.374 1.66138 182.381 1.71181C182.404 1.87422 182.9 1.83105 182.74 1.68026ZM318.917 2.62605C316.853 2.58118 315.607 1.87265 317.854 1.96581C318.26 1.98266 316.975 2.18375 317.493 2.25017C318.44 2.3712 319.072 1.9352 320.038 2.17702C320.213 2.22127 319.035 2.63017 318.913 2.627C318.915 2.62669 318.916 2.62637 318.917 2.62605ZM214.238 1.77504C214.225 1.76706 213.734 1.75673 213.722 1.76451C213.455 1.95288 214.445 1.9738 214.238 1.77504ZM162.089 1.20463C162.063 1.18764 160.933 1.16635 160.891 1.18167C160.298 1.48933 162.592 1.53334 162.089 1.20463ZM247.242 1.53234C247.779 1.34453 248.42 1.32592 248.846 1.56841C248.313 1.55245 247.777 1.54733 247.242 1.53234Z" fill="#CECFD2"/>
</svg>
