<svg width="399" height="25" viewBox="0 0 399 25" fill="none" xmlns="http://www.w3.org/2000/svg">
<path d="M3.59164 20.7989C5.81954 20.5129 8.75878 20.2576 11.0089 20.0959C11.6873 20.0477 11.3545 20.1897 11.8358 20.1599C12.8274 20.0961 13.639 19.9576 14.6045 19.9044C14.9061 19.8892 14.5499 20.0959 14.867 20.0761C16.6672 19.9594 18.3317 19.7393 20.1232 19.5845C26.3122 19.0492 32.3975 18.4684 38.6248 17.8599C41.2482 17.6042 43.9583 17.337 46.6937 17.0687C49.62 16.7821 53.2745 16.5468 56.2987 16.1593C56.6527 16.1138 56.4257 15.9897 56.4919 15.9704C57.5347 15.673 57.213 16.0063 57.9159 15.9716C60.6939 15.8345 63.7817 15.5225 66.4024 15.19C67.5321 15.0466 66.3644 14.8748 67.5253 14.9182C67.606 14.9209 67.3336 15.1068 67.6475 15.0907C68.3695 15.0526 69.6831 14.8869 70.2258 14.8425C71.2727 14.7578 71.4465 14.738 72.4444 14.6356C73.8312 14.4946 75.4073 14.4085 76.8708 14.2208C77.1817 14.1804 76.7522 14.0637 77.2469 13.9848C77.741 13.9061 79.0714 13.7817 79.5051 13.7748C79.9478 13.767 79.774 13.9118 79.8547 13.9325C80.5178 14.1091 82.0004 13.616 82.1965 13.5874C85.7497 13.0773 88.8341 12.9543 92.1553 12.6149C94.7107 12.3534 97.3867 12.0182 99.8209 11.7814C102.684 11.5037 105.16 11.3429 107.933 11.0516C108.227 11.0209 107.864 10.8675 108.223 10.8296C112.057 10.4259 115.857 10.0718 119.676 9.82718C120.059 9.8028 119.583 10.0157 119.966 10.0012C122.321 9.908 126.047 9.87648 127.369 9.02522C128.961 8.90051 130.881 8.74626 132.313 8.75618C133.235 8.76248 132.365 9.02643 133.48 8.84318C133.732 8.80208 133.388 8.67599 133.766 8.62626C135.363 8.41675 137.109 8.30381 138.684 8.07422C139.004 8.02717 138.903 7.89442 138.992 7.86049C139.739 7.58309 141.047 7.80397 141.327 7.80286C143.461 7.79005 145 7.57474 146.972 7.39822C147.431 7.35733 146.872 7.21757 147.312 7.17144C149.597 6.93461 151.958 6.73667 154.207 6.61924C154.707 6.59366 154.264 6.79616 154.503 6.7922C155.559 6.77287 155.764 6.44728 156.775 6.42346C156.988 6.41807 156.881 6.56686 156.921 6.57859C157.546 6.76287 158.041 6.37878 158.196 6.35753C160.158 6.08085 161.451 6.32211 163.346 6.1064C163.572 6.08027 163.045 5.9501 163.683 5.88733C167.946 5.46693 172.462 5.13082 176.688 4.92192C177.348 4.88893 176.889 5.05922 176.932 5.07199C177.628 5.26919 178.036 4.89426 178.249 4.86387C179.936 4.63265 181.512 4.79105 182.642 4.29358C189.803 3.85841 196.905 3.08874 204.029 2.95423C204.121 2.95206 203.969 3.13063 204.151 3.12558C206.341 3.06761 205.902 2.83734 207.312 2.42189C207.643 2.32434 208.64 2.5892 208.847 2.64208C208.862 2.64573 208.873 2.64836 208.88 2.64976C209.246 2.72943 208.89 3.00304 209.012 3.01508C210.015 3.10666 209.801 2.29435 211.13 2.20705C211.171 2.20571 211.007 2.36852 211.119 2.3763C211.468 2.40099 211.807 2.31861 212.147 2.349C212.928 2.41983 213.212 2.80287 214.386 2.49522C214.534 2.45563 214.277 2.00286 215.469 1.9507C215.947 1.9298 218.029 1.79475 218.606 1.7911C219.185 1.7869 218.798 1.96097 218.839 1.96502C220.441 2.06969 219.844 2.18795 220.654 2.43604C221.462 2.68353 221.202 1.9965 221.519 1.89983C221.838 1.80321 222.995 1.90219 223.278 1.9437C223.561 1.98508 223.217 2.10028 223.468 2.11863C225.156 2.2364 224.187 1.73019 224.735 1.58846C226.03 1.25355 227.067 1.71888 228.244 1.70852C228.564 1.70569 228.293 1.60116 228.583 1.57506C229.73 1.47354 230.425 1.60076 231.703 1.38894C231.917 1.3541 232.917 0.992472 233.624 1.18878C233.722 1.21726 233.453 1.35961 233.943 1.36555C234.675 1.37451 235.979 1.34306 236.746 1.26574C237.312 1.20854 236.652 1.02403 237.369 1.05879C237.689 1.07438 237.098 1.22527 237.708 1.24381C238.32 1.26207 239.859 1.19142 240.437 1.16365C241.016 1.13554 240.693 0.986734 240.739 0.97391C241.02 0.899756 242.123 0.777594 242.23 0.773718C247.202 0.559022 251.833 0.683587 256.682 0.476488C257.061 0.460598 256.805 0.295909 256.862 0.291724C258.155 0.189976 257.143 0.667527 258.053 0.798849C257.911 0.455498 258.46 0.50553 259.382 0.448312C259.825 0.420546 259.581 0.291409 259.621 0.276834C260.275 0.0596016 260.733 0.314218 260.851 0.365816C261.287 0.555617 261.746 0.313232 262.053 0.440279C262.354 0.566478 261.67 0.773113 262.56 0.755312C262.806 0.627087 262.142 0.314085 262.815 0.250224C265.316 0.0061301 270.072 0.212229 272.079 0.233146C274.121 0.251063 274.764 0.229046 275.941 0.27425C278.09 0.358769 277.302 0.11711 278.62 0.012174C279.948 -0.0910056 279.302 0.497568 279.492 0.625761C279.68 0.754051 279.887 0.624481 280.121 0.696008C280.353 0.767539 279.848 0.850427 280.396 0.880602C280.946 0.910395 282.42 0.698213 282.628 0.567818C283.043 0.290747 282.373 -0.013326 283.822 0.108087C283.905 0.115304 283.633 0.267475 283.951 0.287232C286.47 0.439066 289.117 0.496189 291.629 0.665507C291.979 0.689163 291.661 0.854278 291.865 0.870026C293.974 1.03642 293.209 0.724591 294.384 0.43403C294.107 0.857875 294.755 1.13923 296.338 1.19372C297.292 1.22731 297.143 1.03397 297.769 0.923024C297.958 0.889558 298.631 1.04357 298.756 0.959629C299.175 0.685705 298.531 0.335586 300.189 0.529456C300.262 0.53847 300.024 0.687741 300.275 0.707302C301.886 0.835456 302.092 0.540662 303.84 0.583005C305.203 0.615712 307.64 0.923047 309.185 1.03947C309.117 1.52121 310.611 1.49356 311.219 1.19467C312.218 1.26674 313.327 1.31562 314.29 1.42313C314.628 1.46041 314.396 1.58641 314.438 1.60428C315.077 1.88357 315.535 1.58755 315.753 1.58906C316.744 1.6016 317.687 1.67982 318.573 1.75698C319.812 1.86437 320.988 1.97257 322.298 1.93212C322.38 1.92965 322.526 1.60253 323.116 1.89446C323.153 1.9144 322.392 2.00958 323.459 2.10357C324.519 2.19698 326.487 2.53622 327.983 2.50816C328.339 2.50072 329.265 2.30639 329.969 2.58412C330.062 2.62161 329.949 2.70847 330.082 2.77443C330.513 2.98518 330.787 2.66805 331.292 3.00519C331.792 3.34205 332.873 3.65978 334.361 3.60708C334.409 3.60604 334.791 3.37261 335.256 3.4241C335.99 3.50545 337.053 3.67327 337.816 3.75437C338.191 3.79406 337.969 3.60142 338.035 3.60543C340.542 3.78577 342.299 4.14172 344.96 4.55129C345.445 4.62616 346.881 4.58712 347.802 4.90019C348.813 5.24494 347.627 5.90049 350.032 6.05788C351.006 6.12533 352.377 5.27886 354.015 6.10139C357.376 6.53067 360.395 7.38957 363.746 7.93188C363.896 7.95621 364.43 7.77643 364.781 7.86023C365.299 7.98443 365.553 8.18328 365.922 8.27871C366.495 8.4283 367.06 8.557 367.611 8.67794C368.549 8.88409 369.459 9.07164 370.392 9.32824C370.954 9.48311 370.721 9.5666 371.392 9.75459C372.058 9.94248 372.557 9.88623 373.441 10.2285C374.105 10.4873 374.685 11.0482 375.576 11.3589C375.715 11.0109 376.336 11.2009 377.467 11.446C377.685 11.493 377.496 11.2986 377.601 11.3145C378.028 11.376 378.375 11.5976 378.783 11.6498C378.882 11.6628 378.925 11.5425 379.008 11.5462C379.722 11.5742 380.709 12.1975 380.876 12.3056C381.525 12.7186 381.905 12.6706 382.423 12.9235C382.938 13.176 382.103 12.9929 382.717 13.2482C383.992 13.7778 385.669 14.3418 386.984 14.8187C387.509 15.0081 387.208 14.7195 387.284 14.7429C388.386 15.0916 389.421 15.6622 390.139 15.5639C390.588 16.664 390.822 15.723 392.31 16.4612C392.427 16.5197 392.437 16.9663 391.948 16.8501C391.459 16.7338 390.795 16.3499 390.112 16.2007C389.951 16.1649 388.936 16.208 388.808 16.1868C387.803 16.0175 387.88 15.387 387.842 15.3367C387.4 14.7859 386.178 14.7953 385.884 14.7228C384.539 14.3878 383.459 13.9232 382.335 13.6439C381.6 13.4612 381.402 13.8238 380.845 13.6263C378.992 12.975 378.504 12.226 376.589 12.1527C376.179 12.1387 376.428 12.6743 375.168 11.9348C375.089 11.8878 374.166 11.284 373.522 11.3117C373.442 11.3153 373.409 11.4405 373.309 11.4234C372.638 11.3066 372.234 11.0869 371.508 10.9403C370.786 10.7951 369.91 10.639 369.108 10.3884C368.624 10.237 368.052 9.84553 367.83 9.73003C367.691 9.65676 367.544 9.60448 367.395 9.56424C366.88 9.4248 366.339 9.43265 366.057 9.20156C365.686 8.90207 366.578 8.78754 365.508 8.40057C365.391 8.71868 365.219 9.03318 365.078 9.3477C362.688 8.78485 360.339 8.18471 357.905 7.74132C357.605 7.68724 357.878 7.92232 357.556 7.8691C356.187 7.64335 355.022 7.30706 353.596 7.12101C352.484 6.97673 351.263 6.97667 350.099 6.8499C349.462 6.36335 347.724 6.24194 346.49 6.03954C346.056 5.96819 346.098 5.87036 345.79 5.79518C344.642 5.51767 345.143 5.92746 344.816 5.93838C343.408 5.98688 343.384 5.20732 341.761 5.02983C341.674 5.01971 340.57 5.30233 340.425 5.3117C339.484 5.37086 340.29 5.15216 339.714 5.0557C338.67 4.88143 337.938 4.70207 336.695 4.69129C336.325 4.68792 335.44 4.85296 334.756 4.58556C334.666 4.55046 334.731 4.4207 334.657 4.4053C333.323 4.1393 333.253 4.56181 332.463 4.63089C331.693 4.70198 330.515 4.29874 330.289 4.19346C329.681 3.91843 330.775 4.14332 330.818 4.12589C331.246 3.90801 330.372 3.87174 329.715 3.79167C329.658 3.36692 328.722 3.30972 329.027 3.70998C329.063 3.7538 329.584 3.76077 329.715 3.79167C329.092 4.14756 328.081 4.1114 326.979 3.63476C326.461 3.41164 326.988 3.24405 325.378 3.18963C324.643 3.16518 324.9 3.47437 324.258 3.50211C322.781 3.56459 320.884 3.15355 319.382 3.0895C318.831 3.06575 319.356 3.26084 318.978 3.25006C318.806 3.24526 318.637 3.23602 318.47 3.22395C317.684 3.167 316.938 3.0434 316.105 3.03827C316.014 3.03799 316.223 3.21698 315.915 3.19867C313.551 3.06202 311.524 2.83214 309.053 2.69266C307.87 2.62532 305.745 2.60735 304.499 2.5311C302.388 2.39959 299.734 2.05135 297.929 2.04587C296.734 2.0409 296.981 2.21501 296.472 2.31011C295.501 2.49476 293.738 2.05236 293.52 1.98629C293.509 1.9838 294.54 1.97496 293.991 1.87428C293.678 1.68878 293.532 1.98588 293.52 1.98629C293.375 1.9423 291.321 1.85041 290.911 1.8731C290.693 1.8851 290.811 2.04417 290.697 2.04749C287.957 2.12254 285.223 2.11593 282.44 2.01365C282.39 2.00997 282.466 1.83605 282.35 1.8296C280.758 1.73576 279.707 1.94259 278.389 2.06338C277.08 2.18445 275.998 2.14095 275.227 1.84114C274.242 1.87874 272.783 1.75017 271.963 1.67388C271.145 1.59744 271.029 1.93861 270.958 1.94569C268.675 2.17585 267.394 1.9939 265.021 1.99554C263.928 1.99498 261.666 2.08195 260.484 2.143C259.532 2.19167 258.951 2.12423 258.059 2.19505C257.938 2.20456 258.064 2.35321 258.027 2.35987C257.057 2.5631 257.517 2.18246 257.314 2.12096C256.578 1.89779 256.124 1.78022 254.857 1.92615C254.562 1.95967 253.729 2.51514 253.208 2.56099C252.525 2.6198 252.778 2.42141 252.059 2.48854C251.997 2.49415 252.014 2.61149 251.568 2.61953C249.478 2.65901 247.246 2.66441 245.1 2.75472C244.809 2.76654 245.189 2.93966 244.769 2.95989C242.781 3.0552 240.611 3.13511 238.664 3.13104C238.183 3.12954 238.479 2.98585 238.373 2.9515C237.715 2.74436 236.841 3.12515 236.694 3.13831C233.163 3.46129 230.423 3.28639 226.832 3.62432C226.638 3.64312 225.144 4.09052 224.442 3.81492C224.395 3.79662 223.7 3.51314 223.133 3.76525C223.097 3.78105 223.519 3.92295 222.798 3.94676C222.077 3.97063 220.917 4.14798 219.898 4.02589C219.575 3.98756 218.803 3.71192 217.888 4.02325C217.829 4.04451 216.415 4.70955 215.868 4.34421C215.778 4.28405 215.844 3.8569 214.722 4.14387C214.507 4.19938 214.908 4.26848 214.339 4.36318C213.476 4.50832 212.339 4.46782 211.28 4.72529C211.096 4.7706 210.322 5.10835 209.666 4.93412C209.563 4.90683 209.744 4.75356 209.404 4.76039C209.267 4.7631 209.129 4.76711 208.99 4.77218C207.535 4.82423 206.018 4.9993 204.519 5.0145C203.939 5.02068 204.215 4.77306 203.612 4.75418C203.017 4.73476 201.814 4.76126 201.196 4.91003C200.577 5.05882 201.288 5.37157 200.351 5.46818C196.275 5.88887 192.241 5.98019 188.159 6.26824C187.553 6.31105 188.061 6.40144 187.174 6.47359C183.914 6.7382 178.257 7.32067 175.386 7.28433C173.096 7.25381 175.942 6.84714 174.198 6.90275C173.355 6.9302 172.481 7.42742 172.279 7.45783C170.3 7.76046 168.919 7.69089 167.139 7.90165C166.771 7.94525 167.147 8.0845 166.835 8.11974C165.767 8.24155 164.628 8.26382 163.612 8.36647C163.155 8.41306 163.25 8.53582 162.828 8.56264C161.817 8.62838 160.919 8.65224 159.922 8.61739C159.831 8.61422 160.423 8.39881 159.674 8.45893C158.458 8.55707 156.955 8.5695 155.573 8.81853C155.163 8.89291 155.174 9.19161 154.267 9.06609C154.077 9.03998 154.283 8.66145 153.275 9.06323C153.104 9.13027 151.409 9.70297 150.532 9.51238C150.301 9.46222 149.701 9.22229 149.209 9.31351C149.142 9.32698 149.426 9.46206 149.016 9.51518C147.571 9.69969 146.05 9.8222 144.566 10.0098C144.169 10.0602 144.777 10.1707 144.185 10.2406C142.56 10.433 140.521 10.5804 138.922 10.6781C138.333 10.7138 138.726 10.5389 138.682 10.528C137.972 10.3502 137.596 10.7154 137.37 10.7559C135.962 11.0035 134.868 10.952 133.562 11.1169C133.202 11.1619 133.473 11.2935 133.402 11.3142C132.67 11.5208 133.198 11.1882 132.724 11.2021C131.393 11.2405 129.927 11.393 128.589 11.5414C128.098 11.5962 128.668 11.7239 128.228 11.7709C125.62 12.0526 122.915 12.2969 120.357 12.4458C119.877 12.4733 120.164 12.3048 120.061 12.2828C119.352 12.1275 118.376 12.5291 118.148 12.5807C117.108 12.8156 116.68 12.7334 115.75 12.848C111.226 13.4079 105.575 13.8887 101.288 14.2699C95.6636 14.7711 91.3494 15.0772 85.9894 15.6628C85.6518 15.6996 86.0114 15.8496 85.7208 15.8836C81.9543 16.3162 78.213 16.6308 74.4577 17.0763C74.1512 17.1124 74.6116 17.2416 74.1207 17.3053C73.0942 17.4394 71.7864 17.5664 70.7538 17.6178C70.2497 17.6433 70.9062 17.4225 70.3993 17.4512C69.2325 17.5163 67.9424 17.639 66.7316 17.7946C66.2166 17.8612 67.0141 17.9587 66.3437 18.0313C61.7808 18.5289 57.301 19.0339 52.6461 19.2937C52.3287 19.3113 52.0123 18.9763 51.3559 19.1168C51.3167 19.2232 51.3321 19.3419 51.3218 19.4524C47.1543 19.9322 43.0444 20.335 38.9318 20.737C36.3756 20.9874 33.9124 21.2275 31.399 21.4881C31.1134 21.5177 31.6266 21.6583 31.0751 21.7166C27.9495 22.047 24.876 22.4287 21.6324 22.58C21.3088 22.5954 21.4733 22.2344 20.5003 22.3899C20.3174 22.4189 18.9395 22.6113 18.5693 22.7253C18.5195 22.7418 18.8019 22.8721 18.3328 22.9267C15.6862 23.2327 12.8745 23.4949 10.2231 23.6779C9.80541 23.7061 10.2294 23.4904 9.93351 23.5088C7.75575 23.6488 5.41247 24.0266 3.32814 24.0896C1.93192 24.1308 2.41378 23.7855 1.65072 23.5738C1.54671 23.5438 0.69397 23.624 0.623736 23.4615C0.467778 23.0521 0.841177 22.5499 0.627294 22.1184C0.592918 22.073 0.313106 22.1031 0.109871 22.1058C0.0021835 22.1076 -0.0103628 22.0952 0.00626745 22.0701C0.0316288 22.0438 -0.0706393 22.0138 0.111688 21.9399C0.146531 21.9226 0.963302 21.7628 1.16316 21.662C1.30097 21.5926 1.03526 21.4479 1.30367 21.3496C1.59515 21.249 1.93572 21.3579 2.39257 21.2271C2.88165 21.0919 2.63431 20.9223 3.59164 20.7989ZM268.242 1.34121C267.481 1.18548 267.374 1.78485 268.195 1.63343C268.235 1.62541 268.281 1.34884 268.242 1.34121ZM360.436 7.76005C359.512 7.30462 358.762 7.55628 359.414 7.89091C360.068 8.22685 360.715 7.89834 360.436 7.76005ZM370.564 9.91658C369.487 9.41882 369.097 10.1945 370.347 10.3442C370.42 10.3532 370.627 9.94564 370.564 9.91658ZM5.06106 23.135C5.0423 23.129 4.41877 23.1867 4.41212 23.1953C4.10201 23.419 5.34273 23.304 5.06106 23.135ZM380.486 12.6373C380.175 12.414 379.134 12.2188 379.522 12.4933C379.833 12.713 380.874 12.914 380.486 12.6373ZM228.291 1.99847C228.279 1.99016 227.84 2.00504 227.851 2.05492C227.89 2.21537 228.497 2.13788 228.291 1.99847ZM396.969 18.5361C394.555 17.6028 393.329 16.3976 395.943 17.4563C396.416 17.648 394.834 17.2814 395.421 17.5675C396.494 18.0905 397.387 17.9541 398.442 18.5969C398.633 18.7137 397.107 18.5912 396.964 18.5354C396.966 18.5356 396.967 18.5359 396.969 18.5361ZM267.797 0.627124C267.782 0.619308 267.169 0.618381 267.154 0.626449C266.824 0.819921 268.06 0.821844 267.797 0.627124ZM202.405 3.23264C202.371 3.218 200.95 3.30358 200.904 3.32261C200.185 3.68523 203.058 3.51302 202.405 3.23264ZM309.208 1.05373C309.886 0.899687 310.702 0.923745 311.216 1.19425C310.557 1.14291 309.874 1.10221 309.208 1.05373Z" fill="#F79009"/>
</svg>
