<svg width="227" height="18" viewBox="0 0 227 18" fill="none" xmlns="http://www.w3.org/2000/svg">
<path d="M1.74579 14.2555C2.96779 13.8008 4.6075 13.362 5.87373 13.0857C6.26695 12.9996 6.09892 13.157 6.37737 13.1011C6.90506 12.997 7.3879 12.812 7.91812 12.722C8.0933 12.6929 7.92335 12.9116 8.10647 12.8774C9.11315 12.6882 10.0379 12.41 11.0513 12.1998C13.6563 11.6604 16.2348 11.1568 18.8362 10.6746C21.1275 10.2257 23.5662 9.71752 25.9707 9.34287C27.6457 9.0711 29.6886 8.89138 31.4051 8.55362C31.6017 8.51461 31.4609 8.38758 31.4967 8.36965C32.0636 8.09232 31.9248 8.41537 32.3136 8.39471C32.8958 8.36252 33.4926 8.30926 34.1123 8.23738C35.1289 8.1208 36.1802 7.95494 37.1079 7.78097C37.748 7.66116 37.0671 7.46605 37.7251 7.53482C37.7709 7.53929 37.6337 7.71778 37.8091 7.70874C38.208 7.68771 38.9608 7.54906 39.2656 7.51719C39.8638 7.45496 39.9619 7.43915 40.5182 7.3605C41.2918 7.25255 42.2082 7.19999 43.0212 7.04904C43.1947 7.01635 42.9407 6.89024 43.2159 6.82371C43.4927 6.75696 44.2371 6.66596 44.4891 6.66895C44.7436 6.67154 44.6551 6.81129 44.7032 6.83374C45.1035 7.02402 45.9101 6.57085 46.019 6.54743C48.0088 6.12851 49.759 6.08627 51.6472 5.83589C53.0813 5.64538 54.6024 5.38403 55.9701 5.21884C57.5927 5.02357 58.989 4.93736 60.5628 4.73063C60.7296 4.70894 60.5111 4.54545 60.7149 4.51858C62.8765 4.23391 65.0299 4.00184 67.2016 3.88522C67.4194 3.87371 67.1591 4.06971 67.3778 4.06807C68.7168 4.05358 70.8439 4.15177 71.5547 3.35194C72.455 3.28468 73.5479 3.20081 74.3653 3.2643C74.8922 3.30515 74.4073 3.53531 75.0356 3.39483C75.1775 3.3634 74.9751 3.22481 75.189 3.1896C76.0893 3.04157 77.0849 2.99639 77.9729 2.83056C78.1534 2.79647 78.0904 2.66019 78.1395 2.62995C78.5554 2.38325 79.3114 2.65637 79.4706 2.66684C80.6884 2.74155 81.5568 2.59228 82.6786 2.50206C82.9381 2.48138 82.6156 2.31759 82.8647 2.29093C83.0153 2.27513 83.1663 2.25997 83.3177 2.2455C84.4753 2.13493 85.6559 2.06419 86.7815 2.05567C87.0668 2.05387 86.8177 2.23473 86.9546 2.24216C87.557 2.27328 87.6667 1.95861 88.2396 1.98433C88.3616 1.98932 88.3032 2.13248 88.3263 2.14612C88.6888 2.36034 88.964 2.00184 89.052 1.98832C90.1584 1.81038 90.9008 2.11668 91.9791 1.99975C92.1082 1.98546 91.8054 1.82821 92.1689 1.79878C94.5885 1.60204 97.151 1.51604 99.5593 1.54982C99.9333 1.55487 99.6728 1.69837 99.697 1.71356C100.091 1.95038 100.32 1.60007 100.441 1.58208C101.403 1.44881 102.307 1.69915 102.942 1.26997C107.009 1.25882 111.05 0.932978 115.092 1.23215C115.143 1.23555 115.054 1.40455 115.156 1.4106C116.389 1.4856 116.142 1.22915 116.958 0.899074C117.165 0.816181 117.785 1.19257 117.846 1.22001C118.05 1.32126 117.843 1.57325 117.911 1.59249C118.475 1.74327 118.361 0.920135 119.122 0.910599C119.145 0.911689 119.048 1.06462 119.112 1.07895C119.309 1.12393 119.497 1.06139 119.692 1.11133C120.141 1.22691 120.284 1.62589 120.964 1.38483C121.048 1.35358 120.913 0.887496 121.582 0.901747C121.855 0.907844 123.031 0.885538 123.367 0.911168C123.7 0.936958 123.473 1.09072 123.497 1.09693C123.704 1.13997 123.842 1.17767 123.94 1.21376C124.281 1.33435 124.16 1.43738 124.506 1.65929C124.952 1.94624 124.825 1.24707 125.005 1.16587C125.184 1.08499 125.845 1.23761 126.003 1.29162C126.162 1.34576 125.967 1.44529 126.108 1.47494C127.067 1.66728 126.516 1.11872 126.827 1.00101C127.556 0.721931 128.144 1.22772 128.817 1.2609C129.001 1.26979 128.849 1.1554 129.01 1.13998C129.652 1.08025 130.042 1.23123 130.769 1.06037C130.888 1.03255 131.47 0.701831 131.859 0.918978C131.914 0.950316 131.764 1.08471 132.04 1.105C132.447 1.13565 133.192 1.14012 133.627 1.08306C133.952 1.04073 133.573 0.839104 133.983 0.892515C134.165 0.916447 133.834 1.05178 134.175 1.08631C134.523 1.12052 135.381 1.08876 135.716 1.0746C136.05 1.0603 135.861 0.903907 135.888 0.892176C136.04 0.825099 136.684 0.728398 136.733 0.72726C139.563 0.627143 142.161 0.842015 144.92 0.698906C145.13 0.688055 144.987 0.51999 145.019 0.516574C145.746 0.431346 145.178 0.896072 145.696 1.03843C145.61 0.693469 145.939 0.750083 146.442 0.703096C146.69 0.680096 146.552 0.548344 146.575 0.534209C146.94 0.323907 147.21 0.582534 147.279 0.6352C147.536 0.828894 147.785 0.590595 147.957 0.720143C148.126 0.848745 147.744 1.04995 148.244 1.03914C148.383 0.912788 148.004 0.594854 148.385 0.53601C148.503 0.517845 148.63 0.502561 148.765 0.489812C150.239 0.346832 152.575 0.529419 153.637 0.539255C154.781 0.549947 155.157 0.522196 155.822 0.558317C157.042 0.623613 156.587 0.388976 157.334 0.26943C158.086 0.149956 157.728 0.746235 157.838 0.872082C157.946 0.997899 158.061 0.865574 158.196 0.933824C158.33 1.00206 158.042 1.0921 158.356 1.11448C158.66 1.13694 159.503 0.900557 159.613 0.766246C159.842 0.481707 159.457 0.190469 160.28 0.284676C160.327 0.290294 160.177 0.447661 160.356 0.461285C161.784 0.564303 163.284 0.554928 164.71 0.645552C164.907 0.658249 164.733 0.833225 164.847 0.842573C166.044 0.940529 165.616 0.653232 166.263 0.322194C166.122 0.755178 166.482 1.01533 167.391 1.00858C167.94 1.00468 167.84 0.817246 168.19 0.680887C168.295 0.639789 168.681 0.765328 168.75 0.676017C168.978 0.384053 168.61 0.0633444 169.548 0.183246C169.589 0.18898 169.46 0.348832 169.602 0.357041C170.515 0.410997 170.621 0.10694 171.613 0.0608503C172.384 0.0247439 173.769 0.196816 174.649 0.219071C174.635 0.704308 175.468 0.585847 175.803 0.248471C176.376 0.257185 176.994 0.232992 177.549 0.274574C177.739 0.288736 177.615 0.430231 177.639 0.445204C178.01 0.680168 178.256 0.352725 178.38 0.338947C179.718 0.203908 180.813 0.44188 182.089 0.191119C182.135 0.182095 182.206 -0.155429 182.55 0.0880245C182.572 0.104819 182.151 0.261301 182.753 0.268637C183.352 0.276007 184.492 0.448324 185.323 0.286366C185.523 0.247366 186.035 -0.0297485 186.447 0.181181C186.502 0.209831 186.443 0.306878 186.522 0.360118C186.779 0.529741 186.916 0.188222 187.217 0.475569C187.515 0.762926 188.146 0.975429 188.985 0.770504C189.012 0.764532 189.209 0.493332 189.472 0.495966C189.895 0.500381 190.5 0.552951 190.94 0.54861C191.15 0.546431 191.014 0.379602 191.051 0.376321C192.472 0.274095 193.487 0.417957 195.006 0.475253C195.279 0.486112 196.095 0.253606 196.629 0.431941C197.219 0.627177 196.614 1.45264 197.982 1.25082C198.526 1.17018 199.23 0.123321 200.213 0.66091C202.133 0.520443 203.907 0.792944 205.829 0.599935C205.916 0.591382 206.19 0.299804 206.39 0.303686C206.514 0.306327 206.614 0.331669 206.704 0.36092C206.836 0.401635 206.947 0.449925 207.074 0.455148C207.976 0.496214 208.803 0.380537 209.672 0.400794C210.006 0.408251 209.891 0.548722 210.281 0.557805C210.657 0.566797 210.95 0.382416 211.471 0.474537C211.858 0.544749 212.289 0.926242 212.803 0.974286C212.826 0.60066 213.21 0.610912 213.848 0.518607C213.978 0.500774 213.84 0.369249 213.902 0.354103C214.151 0.289588 214.373 0.399957 214.599 0.329728C214.654 0.312871 214.658 0.185241 214.702 0.164263C215.108 -0.018845 215.72 0.278021 215.842 0.330272C216.267 0.527565 216.451 0.365172 216.783 0.447082C217.103 0.528987 216.621 0.611697 216.994 0.665489C217.773 0.776925 218.772 0.786681 219.562 0.829878C219.873 0.846219 219.669 0.665905 219.713 0.664288C220.371 0.652221 221.018 0.877874 221.402 0.569324C221.785 1.48499 221.799 0.508694 222.723 0.795885C222.795 0.819665 222.833 1.2425 222.546 1.26783C222.271 1.2949 221.85 1.12025 221.463 1.18343C221.362 1.19632 220.817 1.54556 220.744 1.5651C220.176 1.71237 220.134 1.09134 220.105 1.05511C219.776 0.668043 219.114 1.05877 218.948 1.08173C218.166 1.18414 217.498 1.0793 216.85 1.15944C216.416 1.21122 216.37 1.6169 216.038 1.59831C214.926 1.53809 214.544 0.967186 213.486 1.44827C213.261 1.55117 213.483 1.99673 212.672 1.6413C212.625 1.61888 212.03 1.29536 211.673 1.49562C211.631 1.52087 211.631 1.65029 211.575 1.66087C211.199 1.72928 210.937 1.62501 210.512 1.67285C210.11 1.72078 209.581 1.79296 209.114 1.74822C208.831 1.72143 208.458 1.47982 208.317 1.42064C207.913 1.25015 207.518 1.52882 207.27 1.32284C207.023 1.11585 207.508 0.801526 206.857 0.667805C206.833 1.00406 206.778 1.34919 206.738 1.68735C206.727 1.68726 206.716 1.68717 206.704 1.68706C205.334 1.67414 203.94 1.56947 202.556 1.58762C202.38 1.59024 202.561 1.77055 202.372 1.77802C201.589 1.80875 200.888 1.68199 200.078 1.73608C199.451 1.77863 198.743 1.9727 198.09 2.02358C197.685 1.64044 196.699 1.77529 195.988 1.74349C195.737 1.73252 195.753 1.62968 195.574 1.59701C194.896 1.4763 195.218 1.81477 195.034 1.86917C194.252 2.10144 194.176 1.3322 193.244 1.35618C193.195 1.35718 192.598 1.77067 192.515 1.79669C191.988 1.96622 192.427 1.65439 192.096 1.62594C191.486 1.574 191.076 1.47841 190.368 1.60281C190.163 1.63963 189.662 1.89838 189.266 1.70308C189.213 1.67751 189.241 1.54174 189.199 1.53406C188.433 1.40652 188.415 1.83274 187.976 1.97987C187.534 2.127 186.862 1.83739 186.722 1.75357C186.36 1.53672 186.998 1.65799 187.017 1.63635C187.244 1.37873 186.752 1.42611 186.373 1.40705C186.316 0.989673 185.786 1.01839 185.981 1.38899C186.003 1.42946 186.297 1.38848 186.373 1.40705C186.044 1.81919 185.464 1.87568 184.822 1.49721C184.52 1.31985 184.803 1.10847 183.891 1.19165C183.476 1.22924 183.639 1.5157 183.276 1.59681C182.445 1.78187 181.358 1.52184 180.499 1.5709C180.187 1.58872 180.493 1.74376 180.279 1.76137C179.713 1.80859 179.214 1.69447 178.647 1.75965C178.595 1.76575 178.722 1.92954 178.546 1.93309C177.206 1.96327 176.041 1.86765 174.641 1.87717C173.966 1.8818 172.756 1.98374 172.058 1.97203C170.844 1.95265 169.35 1.72749 168.314 1.79615C167.64 1.8402 167.791 2.00356 167.501 2.11884C166.941 2.34227 165.951 1.96258 165.819 1.90359C165.815 1.90163 166.393 1.85671 166.083 1.77532C165.902 1.60088 165.826 1.90276 165.819 1.90359C165.73 1.86548 164.564 1.84048 164.336 1.8745C164.212 1.89308 164.283 2.04851 164.218 2.05524C162.662 2.21193 161.111 2.26923 159.533 2.21506C159.505 2.21224 159.544 2.03703 159.479 2.03258C158.568 1.96581 157.984 2.18677 157.234 2.3231C156.497 2.45922 155.88 2.42476 155.438 2.13062C154.887 2.17561 154.045 2.05436 153.587 1.98026C153.129 1.90614 153.055 2.24734 153.016 2.2546C151.73 2.488 150.991 2.30413 149.651 2.29471C149.423 2.29292 149.118 2.30063 148.795 2.31346C148.175 2.33714 147.539 2.3768 147.077 2.40873C146.527 2.44829 146.222 2.37404 145.708 2.43445C145.64 2.44251 145.712 2.59264 145.691 2.59885C145.137 2.79033 145.399 2.41524 145.283 2.35127C144.878 2.11844 144.588 1.99582 143.893 2.12277C143.734 2.15183 143.249 2.69478 142.958 2.73208C142.58 2.77959 142.712 2.58568 142.303 2.64074C142.269 2.64528 142.277 2.76296 142.027 2.76322C140.856 2.7662 139.58 2.72791 138.367 2.77169C138.203 2.77717 138.417 2.95853 138.182 2.96951C137.06 3.02138 135.82 3.05051 134.725 2.99688C134.458 2.98301 134.621 2.84699 134.562 2.80995C134.189 2.58622 133.694 2.94374 133.609 2.95297C131.608 3.18058 130.054 2.92364 127.999 3.12113C127.891 3.13263 127.033 3.51886 126.642 3.2124C126.619 3.19198 126.22 2.87868 125.897 3.10449C125.876 3.11861 126.117 3.27967 125.702 3.27047C125.283 3.26135 124.628 3.38281 124.05 3.20928C124.026 3.20237 123.999 3.19132 123.968 3.1778C123.765 3.08422 123.367 2.87328 122.908 3.10236C122.875 3.1207 122.052 3.70876 121.753 3.31347C121.707 3.24837 121.739 2.82606 121.113 3.04971C120.992 3.09306 121.215 3.18459 120.893 3.2471C120.397 3.34344 119.74 3.23803 119.144 3.43321C119.04 3.46774 118.589 3.75963 118.231 3.5468C118.174 3.51348 118.279 3.37126 118.089 3.35792C117.18 3.2939 116.239 3.4012 115.317 3.3182C114.993 3.28907 115.155 3.05872 114.815 3.0032C114.466 2.9478 113.796 2.90066 113.435 3.01139C113.082 3.12205 113.476 3.47768 112.948 3.51664C110.639 3.68669 108.357 3.52932 106.046 3.57024C105.704 3.57633 105.992 3.69709 105.49 3.71561C103.636 3.78261 100.437 4.0311 98.8167 3.83239C97.5196 3.67198 99.1328 3.42756 98.143 3.38428C97.6613 3.36426 97.1714 3.81118 97.0573 3.83024C95.9394 4.02171 95.1533 3.87692 94.149 3.99119C93.9419 4.0149 94.1554 4.17402 93.979 4.19236C93.3741 4.25667 92.7353 4.21818 92.1578 4.26771C91.8982 4.29039 91.9542 4.41779 91.7138 4.42269C91.1424 4.43582 90.6371 4.41341 90.0684 4.32849C90.0169 4.32073 90.3492 4.13579 89.9254 4.15793C89.2467 4.19383 88.3812 4.13269 87.6083 4.31381C87.3773 4.36822 87.3907 4.66637 86.8717 4.49806C86.7627 4.46305 86.8705 4.09527 86.3115 4.44799C86.2195 4.50632 85.2633 4.99865 84.7665 4.76839C84.6345 4.70777 84.2874 4.44125 84.0099 4.51012C83.9724 4.52056 84.1381 4.66793 83.9064 4.70251C83.7804 4.7209 83.6532 4.73779 83.5249 4.75368C82.8304 4.84005 82.0999 4.8966 81.396 5.00098C81.173 5.03435 81.5214 5.17028 81.1886 5.21479C80.2708 5.33764 79.1208 5.40049 78.2153 5.43403C77.8824 5.44599 78.0983 5.28749 78.0728 5.27487C77.6621 5.06941 77.4634 5.41845 77.3365 5.44989C76.5443 5.64136 75.9229 5.54757 75.1869 5.66228C74.9839 5.69355 75.1442 5.83483 75.105 5.8528C74.6987 6.03078 74.9834 5.71949 74.7143 5.71549C73.9602 5.70346 73.1292 5.80182 72.3775 5.90098C72.1013 5.93767 72.4316 6.08546 72.1835 6.11632C70.7158 6.3025 69.1856 6.4521 67.7392 6.51395C67.4667 6.52529 67.6212 6.36723 67.5613 6.34184C67.1477 6.16352 66.6138 6.53096 66.4863 6.57478C65.9053 6.77459 65.6601 6.67843 65.1378 6.7622C62.5866 7.17306 59.4046 7.47834 56.9788 7.73492C53.8197 8.06964 51.3496 8.26114 48.3505 8.7037C48.1586 8.73189 48.3774 8.88978 48.2125 8.91643C46.0925 9.25084 43.9889 9.47159 41.8715 9.82938C41.6992 9.8582 41.9731 9.99703 41.698 10.0491C41.1171 10.1596 40.4069 10.2526 39.8051 10.2835C39.5174 10.298 39.8759 10.0928 39.5872 10.1105C38.9258 10.1497 38.2014 10.2436 37.5246 10.3726C37.234 10.4284 37.7011 10.5412 37.3223 10.5997C36.4026 10.743 35.4498 10.8948 34.5383 11.0304C32.9037 11.2739 31.3042 11.4816 29.6241 11.6058C29.446 11.6187 29.2339 11.282 28.8648 11.4144C28.8532 11.5195 28.8744 11.6372 28.8799 11.7465C25.6811 12.3174 22.6658 12.8302 19.4164 13.5163C18.8701 13.6213 18.3576 13.7225 17.813 13.8346C17.6571 13.8667 17.9658 13.9999 17.6651 14.063C15.9291 14.4282 14.2426 14.86 12.441 15.0928C12.2605 15.1168 12.266 14.7635 11.7624 14.9389C11.6804 14.968 10.9001 15.2071 10.7267 15.3276C10.7018 15.3454 10.8844 15.4639 10.6312 15.5323C9.17961 15.9221 7.66914 16.2879 6.20497 16.6095C5.97133 16.6605 6.17106 16.4258 6.00001 16.462C4.80281 16.7148 3.58759 17.2276 2.42495 17.4476C1.65035 17.5927 1.83347 17.224 1.34243 17.0811C1.2785 17.0597 0.799585 17.2074 0.72665 17.0531C0.540346 16.6685 0.62159 16.1577 0.396239 15.7563C0.338004 15.6756 -0.188905 15.9393 0.0722877 15.6185C0.086764 15.5994 0.495934 15.3889 0.578489 15.2775C0.63852 15.2001 0.447219 15.0826 0.581741 14.9647C0.710448 14.8486 0.930266 14.927 1.16541 14.7625C1.40434 14.5959 1.22329 14.45 1.74579 14.2555ZM151.473 1.65075C151.032 1.49393 150.977 2.09301 151.448 1.94289C151.471 1.93493 151.496 1.65843 151.473 1.65075ZM203.968 1.11852C203.395 0.855728 203.02 1.24457 203.415 1.44748C203.804 1.65022 204.146 1.19819 203.968 1.11852ZM209.853 0.926407C209.18 0.716706 209.07 1.56476 209.794 1.395C209.835 1.38542 209.891 0.938592 209.853 0.926407ZM3.15979 16.4023C3.15531 16.3953 2.81406 16.4964 2.8108 16.5059C2.69174 16.7435 3.36232 16.5448 3.15979 16.4023ZM215.68 0.764135C215.479 0.645895 214.883 0.769955 215.138 0.916274C215.343 1.03378 215.936 0.911102 215.68 0.764135ZM128.844 1.55231C128.837 1.54359 128.583 1.54221 128.59 1.5924C128.61 1.75428 128.962 1.69915 128.844 1.55231ZM225.473 1.67676C224.093 1.27454 223.317 0.435251 224.899 0.853894C225.181 0.934696 224.233 0.928538 224.582 1.07379C225.212 1.33755 225.759 1.03592 226.36 1.45153C226.466 1.52586 225.553 1.70031 225.47 1.67703C225.471 1.67694 225.472 1.67685 225.473 1.67676ZM151.21 0.93606C151.2 0.928281 150.851 0.925994 150.844 0.933961C150.658 1.12667 151.36 1.13139 151.21 0.93606ZM114.161 1.41114C114.144 1.39447 113.332 1.39312 113.304 1.40928C112.887 1.72732 114.528 1.73087 114.161 1.41114ZM174.663 0.231887C175.041 0.0374638 175.497 0.0109706 175.802 0.248241C175.424 0.23879 175.043 0.240265 174.663 0.231887Z" fill="#F79009"/>
</svg>
