<svg width="241" height="14" viewBox="0 0 241 14" fill="none" xmlns="http://www.w3.org/2000/svg">
<path d="M2.19964 10.2109C3.53662 10.0359 5.30282 9.93021 6.6466 9.88473C7.06772 9.87022 6.86514 9.99511 7.15649 9.98985C7.72678 9.9794 8.25032 9.87972 8.81276 9.87816C8.99953 9.87813 8.78403 10.0662 8.97955 10.0624C10.0543 10.0398 11.0524 9.90708 12.1399 9.84585C17.4721 9.54667 22.7008 9.16104 28.0969 8.80425C29.8754 8.68633 32.0534 8.66821 33.8749 8.46213C34.0894 8.43776 33.9499 8.3006 33.9899 8.28536C34.6178 8.05089 34.4318 8.36354 34.8492 8.37147C36.5087 8.40198 38.3521 8.2789 39.9506 8.10601C40.6219 8.0327 39.925 7.78956 40.6164 7.90438C40.6645 7.91205 40.5042 8.08054 40.6908 8.08383C41.1134 8.09097 41.916 8.00554 42.2483 7.99441C42.8768 7.97457 42.9779 7.96587 43.5735 7.92578C44.3902 7.87223 45.3691 7.88228 46.2351 7.7874C46.4211 7.7666 46.163 7.62344 46.459 7.57581C46.7537 7.52828 47.5531 7.48759 47.8199 7.50753C48.0853 7.52754 47.982 7.66093 48.0304 7.68663C48.4288 7.90424 49.3167 7.50618 49.4347 7.49C51.5713 7.20512 53.4161 7.27875 55.4204 7.15155C56.9577 7.05363 58.5732 6.89015 60.0246 6.8109C61.748 6.71749 63.2199 6.71725 64.9016 6.60437C65.08 6.5926 64.8597 6.41642 65.0779 6.40166C67.3723 6.2464 69.6527 6.13835 71.9616 6.13914C72.1946 6.13931 71.9043 6.32113 72.1377 6.3312C73.5316 6.39082 75.8045 6.5965 76.5822 5.83336C77.5258 5.81157 78.6907 5.77982 79.5588 5.88052C80.1059 5.94594 79.5877 6.15337 80.2515 6.04206C80.4016 6.01716 80.1971 5.86943 80.4228 5.84403C81.3036 5.74508 82.2753 5.73587 83.1783 5.63158C83.2479 5.62341 83.3171 5.61465 83.3857 5.60519C83.5759 5.57864 83.5167 5.43983 83.5696 5.41165C84.0141 5.18254 84.7947 5.48544 84.9632 5.50193C86.2446 5.62353 87.1841 5.50462 88.3559 5.45228C88.63 5.44012 88.2967 5.26584 88.5603 5.24732C89.9308 5.15365 91.3637 5.10162 92.7015 5.12307C93.0012 5.1282 92.734 5.30299 92.8776 5.31372C93.5115 5.35909 93.6374 5.04684 94.249 5.08444C94.3781 5.09198 94.3122 5.23391 94.3364 5.24803C94.7149 5.46975 95.0167 5.11654 95.1073 5.10484C96.2743 4.94836 97.0459 5.26694 98.1933 5.1644C98.3307 5.15178 98.0121 4.99063 98.399 4.96586C100.946 4.80122 103.666 4.7282 106.203 4.7577C106.6 4.76195 106.323 4.90602 106.349 4.92117C106.766 5.1571 107.015 4.80569 107.144 4.78724C108.154 4.65089 109.102 4.89554 109.776 4.46091C114.079 4.41647 118.34 4.01063 122.611 4.1995C122.665 4.2015 122.575 4.37288 122.683 4.37614C123.987 4.41712 123.727 4.16708 124.578 3.81374C124.792 3.725 125.475 4.08225 125.53 4.10822C125.745 4.20348 125.537 4.46142 125.608 4.47867C126.2 4.61287 126.071 3.79295 126.862 3.76079C126.887 3.76117 126.789 3.91698 126.856 3.92938C127.065 3.9684 127.267 3.8999 127.472 3.94396C127.941 4.04612 128.122 4.43977 128.823 4.17837C128.912 4.14453 128.756 3.68274 129.47 3.67635C129.76 3.67397 131.001 3.61654 131.353 3.63295C131.704 3.64934 131.47 3.80944 131.495 3.81497C132.445 3.97678 132.091 4.07345 132.575 4.34956C133.06 4.62456 132.901 3.92926 133.092 3.84346C133.282 3.75786 133.983 3.89479 134.157 3.94518C134.33 3.99559 134.12 4.09966 134.274 4.12602C135.291 4.29764 134.702 3.76097 135.028 3.63683C135.791 3.34324 136.416 3.83909 137.131 3.86221C137.324 3.86844 137.162 3.75626 137.334 3.7385C138.013 3.66974 138.429 3.81589 139.201 3.6371C139.329 3.60788 139.942 3.27137 140.353 3.48505C140.411 3.51589 140.254 3.65162 140.544 3.66947C140.977 3.69634 141.757 3.69463 142.221 3.63345C142.564 3.58822 142.161 3.39005 142.597 3.43968C142.791 3.46188 142.438 3.60037 142.802 3.63166C143.163 3.66301 144.086 3.6222 144.438 3.60444C144.786 3.58672 144.589 3.43221 144.617 3.42023C144.784 3.3513 145.448 3.24785 145.507 3.24579C148.489 3.11236 151.246 3.2816 154.161 3.08231C154.39 3.0669 154.231 2.90196 154.266 2.89785C155.044 2.79722 154.445 3.27387 154.995 3.40545C154.903 3.0621 155.226 3.11285 155.773 3.05445C156.037 3.02603 155.888 2.89731 155.911 2.88268C156.296 2.66444 156.579 2.91732 156.652 2.96852C156.919 3.1568 157.194 2.91239 157.376 3.03812C157.558 3.16287 157.158 3.37268 157.686 3.3506C157.829 3.22115 157.425 2.91176 157.824 2.84439C159.341 2.58926 162.152 2.74022 163.376 2.72185C164.594 2.70359 164.983 2.66651 165.689 2.68558C166.966 2.72011 166.49 2.4968 167.278 2.35793C168.07 2.21898 167.705 2.82441 167.824 2.94737C167.94 3.07036 168.058 2.93509 168.201 2.99987C168.342 3.06464 168.044 3.16204 168.373 3.17635C168.701 3.19063 169.591 2.93198 169.703 2.79483C169.939 2.50431 169.525 2.22334 170.392 2.29593C170.442 2.30029 170.286 2.46162 170.477 2.47045C171.99 2.5355 173.566 2.48607 175.088 2.53736C175.296 2.54471 175.117 2.72436 175.238 2.73059C176.499 2.79609 176.039 2.52055 176.717 2.17179C176.578 2.60854 176.968 2.85866 177.925 2.82693C178.501 2.808 178.395 2.62323 178.763 2.47716C178.873 2.43315 179.286 2.54788 179.357 2.45667C179.591 2.15844 179.194 1.84809 180.189 1.94178C180.233 1.94637 180.1 2.10978 180.25 2.11402C181.216 2.14245 181.321 1.83552 182.363 1.76168C183.18 1.70377 184.646 1.8366 185.583 1.83345C185.581 2.31894 186.455 2.1768 186.8 1.82992C187.405 1.82222 188.058 1.78022 188.645 1.80574C188.847 1.81438 188.719 1.95941 188.745 1.97368C189.143 2.19783 189.395 1.86333 189.526 1.84596C190.944 1.67185 192.099 1.87796 193.442 1.58957C193.49 1.57921 193.556 1.23972 193.926 1.47291C193.95 1.48904 193.509 1.65794 194.145 1.64745C194.78 1.63702 195.993 1.77524 196.866 1.58841C197.078 1.54338 197.608 1.25112 198.048 1.44956C198.107 1.47654 198.047 1.57533 198.133 1.62617C198.408 1.788 198.543 1.44247 198.87 1.72056C199.197 1.99864 199.864 2.19216 200.749 1.96152C200.777 1.95473 200.979 1.67757 201.259 1.67204C201.709 1.6634 202.342 1.6976 202.808 1.67959C203.031 1.67088 202.883 1.50833 202.921 1.50392C204.418 1.35777 205.493 1.4699 207.109 1.47866C207.404 1.48064 208.242 1.22282 208.819 1.38363C209.453 1.55959 208.837 2.40438 210.271 2.15846C210.85 2.05992 211.551 0.990976 212.617 1.49532C214.634 1.29137 216.52 1.50319 218.547 1.24173C218.638 1.23011 218.916 0.92894 219.131 0.925499C219.45 0.920955 219.63 1.05103 219.857 1.05214C220.812 1.06025 221.682 0.913681 222.604 0.900054C222.954 0.894584 222.836 1.03953 223.254 1.03302C223.671 1.02637 223.942 0.831531 224.508 0.90162C224.936 0.955185 225.375 1.31931 225.942 1.344C225.951 0.969626 226.339 0.963956 227.027 0.841558C227.159 0.817853 227.012 0.692707 227.074 0.674786C227.327 0.598964 227.568 0.698602 227.808 0.617288C227.867 0.597733 227.865 0.470039 227.912 0.44685C228.317 0.244812 229.003 0.50855 229.121 0.554525C229.573 0.729023 229.774 0.555931 230.118 0.618945C230.461 0.681968 229.955 0.792889 230.354 0.824563C231.182 0.890018 232.241 0.832977 233.08 0.810028C233.414 0.800084 233.18 0.637602 233.228 0.632225C233.918 0.565261 234.625 0.722355 234.996 0.369939C235.505 1.23072 235.409 0.270545 236.403 0.412223C236.481 0.423752 236.594 0.835191 236.298 0.906355C236.001 0.977461 235.544 0.863348 235.133 0.972515C235.036 0.998158 234.487 1.40621 234.41 1.43241C233.815 1.63712 233.709 1.02013 233.675 0.987172C233.302 0.63213 232.629 1.07455 232.449 1.1097C231.625 1.27076 230.919 1.20775 230.23 1.32619C229.78 1.40292 229.75 1.81051 229.394 1.8103C228.21 1.8099 227.776 1.25767 226.679 1.78718C226.444 1.90016 226.696 2.33581 225.828 2.01628C225.774 1.99613 225.128 1.69873 224.768 1.9133C224.723 1.94035 224.729 2.06965 224.668 2.0826C224.263 2.16691 223.989 2.07319 223.546 2.13785C223.103 2.20252 222.571 2.29452 222.063 2.26813C221.756 2.25243 221.356 2.02496 221.207 1.97101C220.788 1.81528 220.355 2.10922 220.093 1.91222C219.828 1.71426 220.321 1.38274 219.64 1.27241C219.627 1.60932 219.581 1.95622 219.553 2.29556C218.074 2.33473 216.605 2.27666 215.12 2.34288C214.935 2.35143 215.13 2.52558 214.933 2.5394C214.1 2.59693 213.369 2.49328 212.506 2.5745C211.836 2.63812 211.108 2.85487 210.409 2.92733C209.968 2.55763 208.934 2.72419 208.179 2.71521C207.915 2.71223 207.929 2.60891 207.74 2.58192C207.028 2.48259 207.372 2.81087 207.179 2.8711C206.351 3.12838 206.253 2.36173 205.269 2.41498C205.217 2.41754 204.594 2.84969 204.507 2.87827C203.956 3.06415 204.41 2.73878 204.06 2.72063C203.421 2.68744 202.976 2.60493 202.234 2.75101C202.019 2.79414 201.505 3.06791 201.073 2.88507C201.017 2.86114 201.043 2.72455 200.998 2.71818C200.181 2.61426 200.174 3.0408 199.715 3.20121C199.256 3.3616 198.531 3.09269 198.382 3.01306C197.994 2.80723 198.671 2.9092 198.691 2.88697C198.924 2.62256 198.404 2.68487 198.004 2.67719C197.932 2.26171 197.376 2.30627 197.591 2.67091C197.615 2.7107 197.924 2.66092 198.004 2.67719C197.669 3.09906 197.058 3.17294 196.37 2.81382C196.046 2.64554 196.339 2.42584 195.376 2.53621C194.94 2.58612 195.119 2.86765 194.735 2.95958C193.859 3.16936 192.705 2.94143 191.8 3.01559C191.472 3.04251 191.798 3.18859 191.574 3.21241C190.981 3.27606 190.445 3.1767 189.846 3.2584C189.792 3.266 189.931 3.42602 189.744 3.43472C188.326 3.5039 187.091 3.44195 185.617 3.49124C184.9 3.51531 183.624 3.65159 182.884 3.65963C181.6 3.67456 180.022 3.49104 178.923 3.58863C178.208 3.65147 178.371 3.81061 178.069 3.93383C177.485 4.17258 176.427 3.82028 176.285 3.76497C176.28 3.76312 176.893 3.70227 176.562 3.62945C176.365 3.46006 176.292 3.76395 176.285 3.76497C176.19 3.72933 174.969 3.73576 174.721 3.7762C174.589 3.79819 174.669 3.95161 174.6 3.96013C172.956 4.15915 171.316 4.25811 169.652 4.24537C169.623 4.24329 169.661 4.06708 169.591 4.06436C168.62 4.02185 168.01 4.25792 167.219 4.41368C166.429 4.56939 165.798 4.54989 165.319 4.26729C164.726 4.32675 163.853 4.22602 163.354 4.16379C162.855 4.1016 162.798 4.444 162.755 4.45232C161.401 4.71737 160.615 4.55151 159.204 4.57335C158.529 4.58327 157.199 4.68194 156.476 4.74605C155.904 4.79729 155.556 4.73047 155.032 4.80102C154.961 4.81047 155.039 4.95911 155.017 4.96575C154.437 5.16869 154.705 4.78824 154.582 4.72669C154.13 4.50295 153.85 4.38528 153.097 4.52665C152.923 4.55907 152.435 5.11076 152.118 5.15383C151.707 5.20885 151.855 5.01209 151.425 5.07456C151.388 5.07973 151.4 5.19723 151.134 5.20205C149.901 5.22581 148.541 5.20854 147.253 5.26925C147.077 5.27709 147.31 5.45535 147.056 5.46975C145.863 5.53723 144.571 5.57958 143.395 5.53707C143.108 5.52596 143.282 5.38826 143.219 5.35181C142.827 5.13146 142.3 5.49368 142.211 5.50361C140.099 5.74918 138.449 5.50363 136.292 5.73523C136.174 5.74846 135.284 6.14986 134.87 5.85174C134.841 5.83195 134.425 5.52663 134.077 5.76023C134.056 5.77483 134.313 5.9303 133.875 5.93068C133.436 5.93109 132.738 6.06923 132.132 5.91125C131.941 5.86152 131.48 5.55887 130.927 5.83661C130.89 5.85593 130.049 6.46775 129.715 6.08203C129.662 6.01848 129.698 5.59475 129.028 5.83802C128.9 5.8851 129.139 5.96974 128.8 6.0421C128.281 6.15351 127.586 6.06828 126.956 6.28178C126.846 6.31951 126.383 6.62474 125.996 6.42284C125.935 6.39122 126.042 6.24592 125.842 6.23825C124.885 6.2012 123.873 6.33659 122.9 6.27877C122.555 6.25859 122.722 6.02388 122.361 5.97754C122 5.93123 121.279 5.90209 120.911 6.02138C120.539 6.14088 120.966 6.48657 120.4 6.53891C117.946 6.7663 115.524 6.65438 113.08 6.72694C112.719 6.7376 113.023 6.85467 112.492 6.87969C110.515 6.97325 107.142 7.24106 105.407 7.04137C104.031 6.88071 105.742 6.6369 104.695 6.59301C104.19 6.57233 103.667 7.01787 103.547 7.0365C102.363 7.22416 101.516 7.07497 100.453 7.18027C100.233 7.2021 100.457 7.3632 100.27 7.37989C99.6314 7.43841 98.9616 7.39238 98.3385 7.43479C98.0614 7.4541 98.1185 7.58226 97.8632 7.58384C97.2528 7.58912 96.7141 7.55893 96.1199 7.46382C96.0658 7.45515 96.4199 7.27613 95.9731 7.29073C95.2561 7.31454 94.34 7.23627 93.5066 7.40025C93.2598 7.44941 93.2635 7.74806 92.7213 7.56722C92.6079 7.52948 92.7325 7.16469 92.1289 7.50332C92.0236 7.5598 91.0228 8.02555 90.4836 7.7818C90.3439 7.71752 89.9825 7.44116 89.6853 7.50161C89.645 7.51091 89.8153 7.66326 89.5681 7.69081C88.6951 7.78523 87.7935 7.81188 86.9036 7.90579C86.6627 7.93135 87.0305 8.07943 86.6714 8.11224C85.6838 8.2027 84.4608 8.22116 83.5134 8.21682C83.164 8.2149 83.3979 8.06551 83.3718 8.05184C83.3467 8.03852 83.3222 8.02721 83.2985 8.01773C82.9154 7.86949 82.7047 8.17185 82.5756 8.1964C81.7221 8.35443 81.0661 8.2335 80.2893 8.31435C80.0751 8.33625 80.2354 8.48478 80.1934 8.50093C79.7577 8.66 80.0729 8.36216 79.7914 8.34566C78.9913 8.29912 78.0947 8.35851 77.2985 8.42051C77.0055 8.44355 77.3447 8.60748 77.0818 8.62606C75.5437 8.73854 73.8743 8.81091 72.3647 8.7934C72.0725 8.79022 72.248 8.64058 72.1856 8.61202C71.755 8.41187 71.1637 8.74974 71.0261 8.78645C70.3995 8.95392 70.148 8.84412 69.5951 8.89818C66.8492 9.16676 63.5051 9.27912 60.9028 9.38563C57.5378 9.52364 54.9328 9.55389 51.7226 9.79779C51.5199 9.81306 51.7365 9.98529 51.5621 10.0008C49.3024 10.1936 47.0573 10.2721 44.802 10.4828C44.6145 10.5 44.8973 10.657 44.597 10.6904C43.9812 10.7602 43.2059 10.8051 42.5896 10.7924C42.2852 10.7869 42.6824 10.607 42.3734 10.6047C41.653 10.599 40.8919 10.641 40.1731 10.7215C39.8674 10.7561 40.3429 10.9024 39.9448 10.9334C37.1961 11.1511 34.5076 11.3849 31.7216 11.3682C31.5298 11.3671 31.3338 11.0148 30.9364 11.1165C30.9141 11.2203 30.9251 11.3395 30.9204 11.4489C26.946 11.8202 22.971 12.0213 18.9794 12.3452C18.8114 12.3589 19.1191 12.5273 18.7926 12.5549C16.8954 12.7156 15.0777 12.929 13.1213 12.9093C12.9283 12.9075 12.9962 12.5584 12.4373 12.6601C12.3376 12.6785 11.4886 12.8001 11.2758 12.8937C11.2469 12.9075 11.4163 13.0524 11.1427 13.0816C9.55274 13.2486 7.87612 13.3641 6.27889 13.4119C6.0201 13.4194 6.27871 13.2253 6.09427 13.2292C4.78707 13.2579 3.38808 13.5157 2.13451 13.4759C1.29458 13.4487 1.57523 13.1282 1.10764 12.881C1.04151 12.8461 0.526922 12.8869 0.484975 12.7219C0.37808 12.3073 0.584707 11.8235 0.441349 11.3841C0.410885 11.2895 -0.267888 11.4568 0.118201 11.1858C0.145232 11.1676 0.637176 11.0442 0.752845 10.9537C0.833407 10.8911 0.663532 10.735 0.831732 10.6488C0.999929 10.5627 1.20493 10.6878 1.487 10.5789C1.76874 10.4689 1.62417 10.2869 2.19964 10.2109ZM161.11 3.88639C160.647 3.74003 160.601 4.3403 161.091 4.17905C161.114 4.17054 161.134 3.89352 161.11 3.88639ZM216.6 1.82539C215.99 1.58244 215.593 1.98435 216.024 2.17337C216.454 2.36217 216.785 1.89901 216.6 1.82539ZM222.812 1.41834C222.103 1.23461 222.022 2.08617 222.767 1.8889C222.811 1.87771 222.853 1.429 222.812 1.41834ZM3.14558 12.6114C3.13853 12.604 2.7684 12.6302 2.76031 12.6389C2.58096 12.8461 3.32102 12.7936 3.14558 12.6114ZM228.976 0.996317C228.753 0.889175 228.127 1.04325 228.404 1.17649C228.627 1.28367 229.253 1.12958 228.976 0.996317ZM137.161 4.15323C137.154 4.14461 136.888 4.14695 136.895 4.19709C136.919 4.35855 137.288 4.29836 137.161 4.15323ZM239.462 0.626174C237.91 0.647521 236.947 -0.0204982 238.637 0.000546515C238.943 0.00434321 237.986 0.246493 238.377 0.296263C239.093 0.38683 239.551 -0.0691051 240.286 0.141539C240.419 0.180146 239.55 0.626512 239.459 0.627245C239.46 0.626888 239.461 0.62653 239.462 0.626174ZM160.82 3.17808C160.811 3.17051 160.444 3.17654 160.435 3.1847C160.243 3.3818 160.983 3.36977 160.82 3.17808ZM121.636 4.40311C121.615 4.3871 120.767 4.40615 120.739 4.42286C120.309 4.75132 122.026 4.71362 121.636 4.40311ZM185.599 1.84586C185.992 1.64075 186.47 1.60129 186.798 1.82974C186.4 1.83111 185.999 1.84343 185.599 1.84586Z" fill="#4BB462"/>
</svg>
